# xmcd
#
# Track frame offsets:
#	150
#	3950
#	15200
#	25041
#	43880
#	53867
#	70221
#	86566
#	98934
#	115122
#	128610
#	138382
#
# Disc length: 1961 seconds
# Revision: 0
# Processed by: cddbd v1.5.2PL0 Copyright (c) Steve Scherf et al.
# Submitted via: dBpowerAMP V12.0
#
DISCID=8f07a70c
DTITLE=The Hanson Family Singers - My Best to You
DYEAR=2009
DGENRE=Country
TTITLE0=Strings-n-Strangs
TTITLE1=Silver Stars
TTITLE2=Shenandoah
TTITLE3=Mommy's Little Cowboy
TTITLE4=The Cattle Drive
TTITLE5=Golden Candles
TTITLE6=Home on the Range
TTITLE7=Trio Harmony Yodel
TTITLE8=Lazy Evening Yodel
TTITLE9=Cowboy Just the Same
TTITLE10=Listen to the Mockingbird
TTITLE11=My Best to You
EXTD=
EXTT0=
EXTT1=
EXTT2=
EXTT3=
EXTT4=
EXTT5=
EXTT6=
EXTT7=
EXTT8=
EXTT9=
EXTT10=
EXTT11=
PLAYORDER=
